<?xml version="1.0" encoding="UTF-8"?> <svg xmlns="http://www.w3.org/2000/svg" id="Layer_1" data-name="Layer 1" viewBox="0 0 878.51 391.21"><defs><style>.cls-1,.cls-4{fill:#2e3192;}.cls-2{fill:#241f59;}.cls-3{fill:#fff;}.cls-4{fill-rule:evenodd;}</style></defs><title>logo-mrjoy</title><path class="cls-1" d="M131.3,387.12h-7.22V354.88h8.47a14.88,14.88,0,0,1,5.43.76,6.54,6.54,0,0,1,4.32,5.4,75.41,75.41,0,0,1,.26,8.36c0,2.08-.05,4.22-.1,6.31v.65c0,1.18,0,2.36-.15,3.48-.21,2-.85,4.87-4,6.38a13.33,13.33,0,0,1-5.56.9Zm.69-4.43a8.31,8.31,0,0,0,3.3-.44,2.42,2.42,0,0,0,1.48-2,62.6,62.6,0,0,0,.3-8v-1.89c0-1.9,0-3.87-.06-5.8,0-2.54-.23-3.59-1.1-4.36a6.49,6.49,0,0,0-3.81-.8h-2.47v23.27Z"></path><path class="cls-1" d="M132.55,355.37a14.06,14.06,0,0,1,5.22.7,6.12,6.12,0,0,1,4,5.05,80.71,80.71,0,0,1,.25,8.28c0,2.31,0,4.65-.11,7,0,1.16,0,2.31-.14,3.45-.26,2.48-1.11,4.75-3.74,6a12.39,12.39,0,0,1-5.29.84h-8.11V355.37h7.93m-3.47,27.81H132a8.88,8.88,0,0,0,3.55-.49,2.93,2.93,0,0,0,1.77-2.36,58.37,58.37,0,0,0,.31-8.06c0-2.56,0-5.11-.05-7.71s-.22-3.76-1.27-4.68-2.79-.95-4.2-.95h-3v24.25m3.47-28.78h-9v33.19h9.2a14,14,0,0,0,5.79-1c3.42-1.62,4.11-4.64,4.32-6.74.11-1.17.15-2.35.15-3.56l0-.62c.05-2.1.09-4.23.09-6.33a75.34,75.34,0,0,0-.26-8.39,7.07,7.07,0,0,0-4.63-5.83,15.59,15.59,0,0,0-5.66-.78Zm-2.38,5.51h1.93c1.36,0,2.71.06,3.46.68s.85,1.58.91,4c.07,1.93.07,3.9.06,5.8v1.89a68.15,68.15,0,0,1-.29,7.9c-.3,1.25-.78,1.48-1.21,1.67a8.1,8.1,0,0,1-3,.37h-1.82v-22.3Z"></path><rect class="cls-1" x="166.35" y="354.88" width="5.49" height="32.24"></rect><path class="cls-1" d="M171.3,355.37v31.27h-4.4V355.37h4.4m1.09-1h-6.58v33.19h6.58V354.4Z"></path><polygon class="cls-1" points="200.25 387.12 193.36 354.88 199.03 354.88 203.51 379.71 208.01 354.88 213.64 354.88 206.81 387.12 200.25 387.12"></polygon><path class="cls-1" d="M213,355.37l-6.62,31.27H200.7L194,355.37h4.53l4.95,27.4,5-27.4H213m1.31-1h-6.75l-.15.8-3.88,21.45-3.86-21.43-.15-.82h-6.79l.24,1.13,6.67,31.28.17.78h7.48l.16-.78L214,355.53l.25-1.13Z"></path><rect class="cls-1" x="235.14" y="354.88" width="5.49" height="32.24"></rect><path class="cls-1" d="M240.08,355.37v31.27h-4.4V355.37h4.4m1.1-1H234.6v33.19h6.58V354.4Z"></path><polygon class="cls-1" points="264.79 387.12 264.79 354.88 281.6 354.88 281.6 359.34 270.33 359.34 270.33 367.68 280.18 367.68 280.18 372.18 270.33 372.18 270.33 382.65 281.95 382.65 281.95 387.12 264.79 387.12"></polygon><path class="cls-1" d="M281.05,355.37v3.48H269.78v9.31h9.86v3.55h-9.86v11.43h11.63v3.5H265.34V355.37h15.71m1.11-1H264.25v33.19h18.24v-5.41H270.87v-9.51h9.86v-5.48h-9.86v-7.36h11.29V354.4Z"></path><path class="cls-1" d="M319.33,387.12l-6.09-13.74h-2.75v13.74H305V354.88h8.33c2.45,0,5,.12,7,1.57,1.39,1,3,3,3,7.13v.1a18.94,18.94,0,0,1-.37,4,6.75,6.75,0,0,1-1.56,3.48,5.71,5.71,0,0,1-2.69,1.61l6.45,14.36Zm-7.08-17.76A11.6,11.6,0,0,0,316,369c1.81-.64,1.81-3,1.81-4.62v-.1a8.91,8.91,0,0,0-.37-3.16c-.64-1.64-2.44-1.78-4.37-1.78l-2.54,0v10Z"></path><path class="cls-1" d="M313.31,355.37c2.28,0,4.75.07,6.69,1.45,3,2.11,2.75,6.26,2.75,6.86a19.54,19.54,0,0,1-.33,3.91,6.47,6.47,0,0,1-1.46,3.27,5.39,5.39,0,0,1-3,1.59l6.35,14.19h-4.64l-6.08-13.73h-3.68v13.73h-4.38V355.37h7.76m-3.38,14.47h2.32a12.86,12.86,0,0,0,3.91-.35c2.22-.81,2.18-3.55,2.18-5.18a8.74,8.74,0,0,0-.43-3.32c-.78-2-2.92-2.09-4.88-2.09h-3.1v10.94m3.38-15.44h-8.86v33.19H311V373.86h1.85L318.67,387l.27.6h7l-.58-1.32-6-13.22a6.13,6.13,0,0,0,2.42-1.59,7.18,7.18,0,0,0,1.68-3.7,20.58,20.58,0,0,0,.36-4.08v-.1c.06-4.3-1.69-6.45-3.18-7.51-2.17-1.54-4.81-1.67-7.37-1.67ZM311,359.88h1.08l.46,0H313c2.16,0,3.35.23,3.85,1.43a8.62,8.62,0,0,1,.35,3v.1c0,1.86-.1,3.7-1.48,4.18a10.94,10.94,0,0,1-3.5.29H311v-9Z"></path><polygon class="cls-1" points="352.01 387.12 352.01 359.34 345.27 359.34 345.27 354.88 364.27 354.88 364.27 359.34 357.52 359.34 357.52 387.12 352.01 387.12"></polygon><path class="cls-1" d="M363.75,355.37v3.48H357v27.79h-4.4V358.85h-6.76v-3.48h17.94m1.07-1H344.71v5.43h6.76v27.76h6.58V359.83h6.77V354.4Z"></path><polygon class="cls-1" points="386.41 387.12 386.41 354.88 403.22 354.88 403.22 359.34 391.97 359.34 391.97 367.68 401.8 367.68 401.8 372.18 391.97 372.18 391.97 382.65 403.57 382.65 403.57 387.12 386.41 387.12"></polygon><path class="cls-1" d="M402.68,355.37v3.48H391.41v9.31h9.84v3.55h-9.84v11.43H403v3.5H387V355.37h15.71m1.08-1h-17.9v33.19h18.27v-5.41H392.5v-9.51h9.86v-5.48H392.5v-7.36h11.26V354.4Z"></path><polygon class="cls-1" points="446.3 387.12 446.3 354.88 451.94 354.88 451.94 382.65 462.42 382.65 462.42 387.12 446.3 387.12"></polygon><path class="cls-1" d="M451.42,355.37v27.77h10.44v3.5h-15V355.37h4.57m1.08-1h-6.72v33.19H463v-5.41H452.5V354.4Z"></path><path class="cls-1" d="M497.32,387.12l-1.27-6H488.7l-1.23,6h-5.72l7.91-32.24H495l8.13,32.24Zm-2.22-10.36-2.82-13-2.64,13Z"></path><path class="cls-1" d="M494.55,355.37l7.88,31.27h-4.65l-1.28-6h-8.25l-1.24,6h-4.59l7.68-31.27h4.45M489,377.25h6.76l-3.49-16.09L489,377.25m6.44-22.85h-6.21l-.2.75-7.67,31.27-.27,1.17h6.86l.16-.78,1.07-5.25h6.43l1.13,5.25.14.78h6.93l-.3-1.17-7.9-31.27-.17-.75Zm-5.15,21.88,2-9.84,2.13,9.84Z"></path><polygon class="cls-1" points="548.52 387.12 541.67 354.88 547.32 354.88 551.8 379.71 556.29 354.88 561.93 354.88 555.1 387.12 548.52 387.12"></polygon><path class="cls-1" d="M561.26,355.37l-6.61,31.27H549l-6.67-31.27h4.55l4.94,27.4,5-27.4h4.48m1.31-1h-6.74l-.15.8-3.88,21.45-3.86-21.43-.14-.82H541l.25,1.13,6.65,31.28.18.78h7.49l.15-.78,6.63-31.28.22-1.13Z"></path><rect class="cls-1" x="583.43" y="354.88" width="5.5" height="32.24"></rect><path class="cls-1" d="M588.38,355.37v31.27H584V355.37h4.39m1.1-1h-6.6v33.19h6.6V354.4Z"></path><path class="cls-1" d="M620.31,387.12h-7.22V354.88h8.47a14.91,14.91,0,0,1,5.43.76,6.51,6.51,0,0,1,4.31,5.4,76.47,76.47,0,0,1,.25,8.36c0,2.17,0,4.37-.09,6.55v.41c0,1.18-.05,2.35-.16,3.48-.2,2-.84,4.87-4,6.38a13.14,13.14,0,0,1-5.53.9Zm.71-4.43a8.21,8.21,0,0,0,3.27-.44,2.46,2.46,0,0,0,1.49-2,61.58,61.58,0,0,0,.28-8v-1.88c0-1.91,0-3.88,0-5.81,0-2.54-.23-3.59-1.09-4.36a6.52,6.52,0,0,0-3.82-.8h-2.47v23.27Z"></path><path class="cls-1" d="M621.56,355.37a14.06,14.06,0,0,1,5.22.7,6.07,6.07,0,0,1,4,5.05,73.76,73.76,0,0,1,.27,8.28c0,2.31,0,4.65-.12,7,0,1.16,0,2.31-.15,3.45-.25,2.48-1.11,4.75-3.73,6a12.37,12.37,0,0,1-5.28.84h-8.1V355.37h7.92m-3.49,27.81H621a8.79,8.79,0,0,0,3.52-.49,2.94,2.94,0,0,0,1.78-2.36,62.41,62.41,0,0,0,.3-8.06c0-2.56,0-5.11-.06-7.71s-.18-3.76-1.25-4.68-2.79-.95-4.21-.95h-3v24.25m3.49-28.78h-9v33.19h9.21a13.91,13.91,0,0,0,5.77-1c3.44-1.62,4.12-4.64,4.34-6.74.11-1.19.16-2.37.16-3.56V376c0-2.16.09-4.38.09-6.55a72.55,72.55,0,0,0-.26-8.39,7,7,0,0,0-4.63-5.83,15.53,15.53,0,0,0-5.65-.78Zm-2.39,5.51h1.93c1.35,0,2.72.06,3.47.68s.84,1.58.89,4c.09,1.95.08,3.92.06,5.81v1.88a64.28,64.28,0,0,1-.28,7.9c-.29,1.25-.78,1.48-1.21,1.67a8.07,8.07,0,0,1-3,.37h-1.85v-22.3Z"></path><path class="cls-1" d="M668.28,387.12l-1.25-6h-7.37l-1.22,6H652.7l7.92-32.24h5.31l8.13,32.24Zm-2.21-10.36-2.84-13-2.62,13Z"></path><path class="cls-1" d="M665.51,355.37l7.88,31.27h-4.65l-1.28-6H659.2l-1.21,6h-4.61l7.69-31.27h4.44m-5.57,21.88h6.77l-3.49-16.09-3.28,16.09m6.45-22.85h-6.21l-.2.75-7.67,31.27-.27,1.17h6.86l.16-.78,1.05-5.25h6.44l1.12,5.25.15.78h6.94l-.31-1.17-7.87-31.27-.19-.75Zm-5.15,21.88,2-9.84,2.12,9.84Z"></path><path class="cls-2" d="M757.75,372l-.17.13-.48.37c-6.84,5.39-13.29,8.95-19.42,10.72-.56.17-1.13.3-1.69.44a32.53,32.53,0,0,1-5.24.82c-.7.05-1.37.06-2.06.06A30.52,30.52,0,0,1,698,354.15c-.11-8.6,2.75-15.86,8.47-21.55l.53-.5-7,6.64c-.17.17-.37.34-.54.52-5.72,5.69-8.56,12.93-8.47,21.55a30.48,30.48,0,0,0,30.74,30.4c10.91,0,22.85-6.17,36.3-18.89l7-6.65,0,0,0,0C762.53,368,760.13,370.11,757.75,372Z"></path><polygon class="cls-2" points="871.77 225.45 867.92 225.42 846.82 225.15 839.8 231.8 860.89 232.06 864.74 232.11 871.48 232.19 878.51 225.54 871.77 225.45"></polygon><path class="cls-2" d="M794.54,223.52l-6.42-.26-.08-6.18,0-3.55-.23-19.67,0-3.68-.07-6.43-7,6.65.08,6.42,0,3.68.12,11.94-1.51,0-3.86.08-6.87.12-7,6.64,6.85-.12,3.87-.07,6.75-.11,1.85-1.75,0,2.94,0,3.53.07,6.18,6.42.28,3.66.14,5.74.26-6.42,20.6c-1.39,4.44-2.92,8.64-4.57,12.57l7-6.65q2.47-5.9,4.57-12.58l6.4-20.6-5.74-.25Z"></path><polygon class="cls-2" points="689.13 193.45 691.35 210.53 698.38 203.88 696.16 186.8 695.69 183.17 694.87 176.81 687.83 183.45 688.67 189.81 689.13 193.45"></polygon><path class="cls-2" d="M724.21,214l-1.89.13c-3.28.22-7.22.56-12,1l-3.77.38-1.58.15-7,6.66,1.57-.16,3.77-.38c4.77-.48,8.7-.81,12-1,.65,0,1.27-.09,1.88-.12,11.33,20.87,21.05,38.9,28.93,53.65,7.25,13.56,12.82,24.45,16.6,32.4-2.92,8.25-11.29,22.41-19.79,32.65l7-6.66c8.48-10.24,16.87-24.4,19.77-32.65-3.76-7.93-9.35-18.83-16.58-32.4C745.27,253,735.53,234.91,724.21,214Z"></path><polygon class="cls-2" points="578.75 161.68 585.41 161.7 592.46 155.06 585.78 155.03 581.97 155.01 567 154.97 559.96 161.61 574.93 161.67 578.75 161.68"></polygon><path class="cls-2" d="M660.38,234.45c4.78,5.69,7.27,13.68,7.39,23.73.12,11-2.41,19.68-7.63,25.92l7-6.65c5.21-6.23,7.73-14.93,7.61-25.92-.1-10.05-2.59-18-7.37-23.73-5.22-6.56-11.65-9.54-20.41-9.56-8.54,0-15.12,2.31-20.42,7.32l-7,6.65c5.32-5,11.89-7.36,20.42-7.32C648.73,224.91,655.17,227.89,660.38,234.45Z"></path><path class="cls-2" d="M500.39,158.89l18.37,1.83,0,1.7c0,3.4.16,7.73.4,12.88.25,5.32.57,11.41,1,18.13.37,5.67.69,10.74.94,15.18l.17,2.78c.3,4.88.49,8.94.52,12.07.33,27.78-2.56,48.6-8.59,61.9a33.28,33.28,0,0,1-7.05,10.69l7-6.64a33.83,33.83,0,0,0,7.07-10.7c6-13.29,8.9-34.13,8.6-61.91-.05-3.11-.23-7.18-.53-12.07l-.19-2.78c-.25-4.44-.57-9.5-.92-15.17-.41-6.71-.72-12.81-1-18.12-.23-5.15-.37-9.49-.4-12.89l0-1.7-18.38-1.82-4-.4-7-.7,1-6.7.56-3.82,2.84-19.43.54-3.72,1-6.51-7,6.65-1,6.51-.53,3.71-2.85,19.43-.56,3.83-1,6.69,7,.71Z"></path><path class="cls-2" d="M646.33,324.52c-21.42-.08-38.64-7.07-51.2-20.79-12.07-12.73-18.31-29.43-18.53-49.6-.25-21.25,6.39-39.09,19.76-53,.91-1,1.83-1.89,2.77-2.78l-7,6.65c-.94.89-1.86,1.82-2.75,2.77-13.37,13.95-20,31.79-19.78,53,.24,20.2,6.46,36.87,18.54,49.6,12.57,13.73,29.79,20.73,51.19,20.79,18.58.07,33.85-5.45,45.46-16.43,2.34-2.23,4.71-4.44,7-6.66C680.16,319.05,664.91,324.58,646.33,324.52Z"></path><path class="cls-2" d="M542.58,317.92v0a53.79,53.79,0,0,1-5.34,4.47c-10.26,7.49-22.84,11.28-37.41,11.22-16.49,0-29.37-4.72-38.27-13.88-8.7-8.93-13.2-21.89-13.39-38.49a115.12,115.12,0,0,1,9.73-47l1.42-3.31,2.5-5.8-7,6.64-2.49,5.81-1.43,3.31a115.16,115.16,0,0,0-9.73,47c.18,16.59,4.71,29.54,13.4,38.49,8.89,9.15,21.77,13.82,38.26,13.88,14.58.05,27.17-3.73,37.41-11.24a55.21,55.21,0,0,0,5.35-4.46c.8-.75,1.58-1.5,2.39-2.24l4.64-4.41S542.58,317.92,542.58,317.92Z"></path><path class="cls-2" d="M340.45,243.37A34.07,34.07,0,0,0,350.77,249a36.1,36.1,0,0,0,11.55,2c8.14,0,15-2.49,20.12-7.32,2.35-2.21,4.68-4.43,7-6.64-5.11,4.82-12,7.34-20.14,7.32a35.78,35.78,0,0,1-11.53-2,34.33,34.33,0,0,1-10.32-5.61,31.58,31.58,0,0,1-6.93-7.69l-7,6.64A31.24,31.24,0,0,0,340.45,243.37Z"></path><path class="cls-2" d="M267.23,163.33l-16-2.28c-3.3-.46-7.41-1.07-13-1.9l-2.71-.4-7,6.65,2.72.4c5.56.83,9.66,1.44,13,1.91l16,2.26,6.82,1,7-6.65Z"></path><path class="cls-2" d="M281.09,221.53c4.63.68,8.86,1.24,12.85,1.72.31,9.33.92,21.29,1.87,36.32.82,13.27,1.41,24.35,1.73,33.08l7-6.65c-.32-8.73-.9-19.81-1.74-33.09-.94-15-1.55-27-1.86-36.31-4-.49-8.22-1-12.85-1.72l-3.76-.55-6.57-1,.85-6.33.51-3.62,2.35-17.23.49-3.57.85-6.26-7,6.65-.86,6.27-.48,3.57-2.35,17.22-.51,3.62-.86,6.33,6.58,1Z"></path><polygon class="cls-2" points="275.54 297.47 282.58 290.83 282.88 284.27 275.85 290.91 275.54 297.47"></polygon><path class="cls-2" d="M179.18,182l-.47,1.35c-1.14,3.21-2.33,6.54-3.58,10-6.65,18.07-11.84,32.26-15.66,42.75l7-6.65c3.81-10.5,9-24.69,15.66-42.75,1.07-2.94,2.09-5.81,3.09-8.61.16-.44.33-.91.48-1.35l.47-1.35c.52-1.44,2.58-7.43,2.7-7.76l-7,6.66C181.76,174.57,179.69,180.56,179.18,182Z"></path><path class="cls-2" d="M82.82,221.7c.16,4.26.34,9.38.58,15.33.54,13.53,1.31,32,2.31,55.07l7-6.65c-1-23-1.76-41.55-2.3-55.07-.24-5.94-.43-11.08-.59-15.32l-.21-6.34-.13-4.37-7,6.65.12,4.36Z"></path><path class="cls-2" d="M149,310.08l-.27-1.56c-3-17.31-8.6-38.56-16.55-63.16l-3.74-11.48-7,6.65L125.15,252c7.94,24.6,13.52,45.87,16.54,63.17l.27,1.55.94,5.44,22.46.07,7-6.64L150,315.5Z"></path><path class="cls-2" d="M94.55,320.71c-5.87.46-11.07.82-15.41,1.05l-12.85.68-7.06.38-.4-34.62-7,6.66.41,34.6,7.06-.36,12.85-.69c4.34-.23,9.53-.59,15.42-1.06,11.42-.94,20-1.4,25.52-1.38l8.58,0,7-6.65-8.58,0C114.58,319.31,106,319.78,94.55,320.71Z"></path><path class="cls-2" d="M360.12,326.23l-3.73-.31c-3.85-.33-8.39-.61-13.9-.89s-11.61-.57-18.33-.92c-8.14-.37-14.92-.64-20.19-.8s-9.56-.37-12.43-.56l-3.8-.23-6.62-.42.05-1.24,0,0h0a113.42,113.42,0,0,1-15.48,1.69c-5.51.31-12.17.61-20.34.91a2.25,2.25,0,0,0-.93,0c-14.2.43-25.16,1.56-32.62,3.33l-2.38.56-8.3,2-.06-8.27-.68-88.86-7,6.65.67,88.85.07,8.28,8.31-2,2.37-.55c7.44-1.78,18.38-2.9,32.55-3.33a2.52,2.52,0,0,0,.77,0c8.28-.32,15-.61,20.56-.91a117.57,117.57,0,0,0,15.51-1.69l-.07,1.25,6.63.41,3.8.24c2.87.19,7.06.37,12.42.55s12.07.43,20.19.82l18.35.9c5.5.28,10,.57,13.89.89l3.74.31,6.54.56,7-6.64Z"></path><path class="cls-1" d="M672.51,223.71c5.84,6.95,8.83,16.29,9,27.83.14,12.53-2.89,22.58-9,29.88-6.36,7.85-15.47,11.64-27.92,11.59-10.8-.05-19.2-3.59-25.68-10.83-6.52-7.6-9.75-16.5-9.87-27.2-.13-12.06,3.06-22.3,9.54-30.45,7-8.6,16.27-12.78,28.35-12.74C657.81,211.84,666.18,215.73,672.51,223.71Zm-5.33,53.74c5.21-6.23,7.73-14.93,7.61-25.92-.1-10.05-2.59-18-7.37-23.73-5.22-6.56-11.65-9.54-20.41-9.56-10.06-.05-17.42,3.23-23.16,10.28-5.52,7-8.27,15.9-8.15,26.47.1,9.14,2.8,16.69,8.26,23.07,5.18,5.78,11.71,8.48,20.53,8.51,10.42,0,17.62-2.85,22.69-9.12"></path><path class="cls-1" d="M871.36,185.5l6.69,0,.06,6.44,0,3.69.23,19.67,0,3.72.08,6.49-6.74-.09-3.84,0-21.11-.27c-6.69,16.77-12.88,31.47-18.48,43.74-6.37,14-12.09,25.61-17,34.59C799.62,324.28,786,343.4,773,357.56c-16.77,18.21-31.25,27-44.26,27A30.5,30.5,0,0,1,698,354.15c-.1-8.6,2.76-15.86,8.48-21.55S719.79,324,728.51,324c8.23,0,15.37,2.77,20.64,7.95.27.26.53.54.81.81,8.48-10.24,16.87-24.4,19.77-32.65-3.76-7.93-9.35-18.83-16.58-32.4C745.27,253,735.53,234.91,724.21,214l-1.89.13c-3.28.22-7.22.56-12,1l-3.77.38-1.58.15c4.74,10.77,7.21,23.28,7.39,37.4.23,20.36-5.1,37.16-15.84,49.91-12.1,14.34-29,21.55-50.21,21.48-21.42-.08-38.64-7.07-51.2-20.79-12.07-12.73-18.31-29.43-18.53-49.6-.25-21.25,6.39-39.09,19.76-53,13.38-14.2,31.49-21.37,53.78-21.3a62,62,0,0,1,27.8,6.2,55.14,55.14,0,0,1,20.44,17.88l-2.22-17.08-.47-3.63-.82-6.36,6.57-.75,3.77-.41c4.51-.51,12.51-1,23.77-1.57s26.29-1.12,44.67-1.69l3.82-.12,6.66-.22.31,6.43.18,3.68,1,19.93.19,3.73.34,6.52-6.78.12-3.86.08-6.87.12c.35.67.71,1.34,1.09,2,3.57,6.65,7.54,14,11.8,21.94,4.42,7.81,8.27,14.68,11.43,20.47q2.47-5.9,4.57-12.58l6.4-20.6-5.74-.25-3.64-.15-6.42-.26-.08-6.18,0-3.55-.23-19.67,0-3.68-.07-6.43,6.66,0,3.82,0c7.56,0,19.34.3,35,.85,15.19.54,26.75.83,34.37.85Zm.12,10.12,0-3.68h-3.8c-7.71,0-19.34-.31-34.59-.85-15.62-.55-27.34-.84-34.84-.87h-3.79l0,3.68.22,19.67.05,3.54,3.67.16,14.43.6-8.9,28.61a131.56,131.56,0,0,1-10.68,25.23c-1.44-2.83-3.11-6-5-9.39-3.37-6.22-7.62-13.84-12.65-22.71-4.29-8-8.29-15.39-11.84-22-2.15-4-4.09-7.78-5.74-11.16l17.22-.31,3.87-.06-.19-3.73-1-19.94-.18-3.67-3.81.12c-18.34.58-33.34,1.14-44.58,1.68s-18.95,1.06-23.32,1.54l-3.75.42.46,3.64,2.54,19.45.46,3.62,3.77-.37c4.84-.49,8.85-.83,12.21-1.05,2.36-.15,4.45-.3,6.3-.43,12.21,22.51,22.65,41.84,31,57.48,8,15,14,26.71,17.77,34.9-2.73,10.33-16,32.49-28,44a16.48,16.48,0,0,0-4.44-7.34c-4-3.94-9.32-5.94-15.81-6-7,0-12.82,2.22-17.33,6.68a22.86,22.86,0,0,0-6.61,17.07A23.84,23.84,0,0,0,711.46,371a23,23,0,0,0,17.16,7.16c10.86,0,24.09-8.33,39.33-24.87,12.76-13.83,26-32.56,37.43-52.73,4.87-8.93,10.54-20.45,16.85-34.29,6-13.19,12.72-29.17,20-47.57l25.69.32,3.86.05,0-3.71-.25-19.7m-165.79,57.5c-.19-18.21-4.43-33.46-12.59-45.37-9.87-14.2-24.3-21.44-42.89-21.5-20.35-.08-36.81,6.4-48.89,19.23s-18.28,29.1-18.05,48.67c.21,18.55,5.86,33.81,16.79,45.31,11.23,12.29,26.78,18.55,46.19,18.62,19.14.08,34.31-6.36,45.08-19.14,9.76-11.59,14.59-27,14.36-45.82"></path><path class="cls-1" d="M585.26,116.55l6.75,0,.08,6.51,0,3.71.2,18.21,0,3.68.08,6.44-6.68,0L582,155l-15,0c0,1.76,0,3.7,0,5.87,0,3.48.14,7.47.27,11.89.14,4.7.32,10.15.58,16.65.22,6.19.42,11.84.57,16.83s.23,9,.26,12c.36,30.78-2.37,54.71-8.14,71.11-5.4,14.66-13.21,25.7-23.29,33.08-10.26,7.49-22.84,11.28-37.41,11.22-16.49,0-29.37-4.72-38.27-13.88-8.7-8.93-13.2-21.89-13.39-38.49a115.12,115.12,0,0,1,9.73-47l1.42-3.31,2.5-5.8,6.1,2.38,3.48,1.36,18.46,7.2,3.6,1.39,6.31,2.47-2.56,6-1.45,3.43c-5.07,12-7.6,22.87-7.49,32.47.1,8.65,1.8,12.77,11.11,12.82,12.06,0,17.47-8.51,20.85-16,6-13.29,8.9-34.13,8.6-61.91-.05-3.11-.23-7.18-.53-12.07l-.19-2.78c-.25-4.44-.57-9.5-.92-15.17-.41-6.71-.72-12.81-1-18.12-.23-5.15-.37-9.49-.4-12.89l0-1.7-18.38-1.82-4-.4-7-.7,1-6.7.56-3.82,2.84-19.43.54-3.72,1-6.51,6.74,1.17,3.84.65c14.12,2.44,34,3.73,59.2,3.82,3,0,6.16,0,9.32,0Zm.2,10.15,0-3.71-3.88,0c-3.18,0-6.34,0-9.38,0-25.57-.1-45.88-1.41-60.38-3.91l-3.84-.66-.55,3.72-2.83,19.43-.56,3.81,4,.41,24.39,2.44,0,2.1.08,5.42c0,3.31.16,7.57.39,12.67.25,5.32.56,11.38,1,18q.52,8.5.93,15.18l.16,2.77c.32,5,.49,9.16.54,12.38.33,28.71-2.75,50.42-9.14,64.54-6,13.33-14.83,19.79-26.9,19.75s-17.7-6-17.85-19.27c-.13-10.45,2.57-22.22,8-35l1.47-3.44L487.43,242,469,234.82l-3.48-1.35-1.42,3.32a109.18,109.18,0,0,0-9.23,44.45c.17,14.92,4.06,26.4,11.55,34.12s18.79,11.76,33.35,11.8c26.31.09,44.63-13.31,54.42-39.87,5.55-15.77,8.18-39,7.84-69.14,0-3-.12-6.86-.26-11.87s-.35-10.7-.58-16.76c-.25-6.58-.45-12.05-.55-16.71-.16-4.44-.25-8.47-.29-12,0-3.25,0-6,0-8.48,0-1.31.06-2.59.12-3.82l21.41.07,3.82,0-.05-3.69-.2-18.21"></path><path class="cls-3" d="M265,109.18c1,0,1.53,0,2,0l1,0c.66,0,1.29.08,1.9.1.28,0,.59.05.86.07.72.07,1.41.15,2.06.24a23.09,23.09,0,0,1,2.54.49,17.24,17.24,0,0,1,1.91.6,11,11,0,0,1,1.58.77,7,7,0,0,1,1.22.94,4.38,4.38,0,0,1,1,1.41,3.57,3.57,0,0,1,.24,1.3c-.18,3.3-3.34,7.12-9,11.53l-.91-.08-5.36-.52a30.26,30.26,0,0,0,5.85-5.35,5.88,5.88,0,0,0,1.47-3.3,2.49,2.49,0,0,0-.17-.91c-1.23-2.19-4.76-3.08-10.32-3.11-1.91,0-3.92.08-6.13.25-9,.69-21.29,2.81-35.74,6.17-.69.15-.91.2-1.11.26l-1.88.44L216,121l-.81.21q-6.24,1.52-12.89,3.31c-14.69,4-30.86,8.87-47.7,14.61q-9.22,3.13-18,6.34l-3.1,1.14c-1.91.71-3.81,1.42-5.67,2.13-11.37,4.3-21.93,8.62-31.43,12.78-1,.44-1.91.85-2.84,1.27l-3.43,1.56c-21,9.6-35.77,18.28-40.68,24.19-1.52,1.82-2.09,3.39-1.62,4.62.79,2.08,4.46,3.08,10.43,3.1,7.28,0,18-1.4,31.14-4.08v2.31c0,.61,0,1.48,0,2.3-2.32.45-4.59.89-6.78,1.28l-.89.15c-2.25.39-4.43.75-6.53,1.06-2.51.38-4.56.66-6.54.89l-1,.12q-2.88.33-5.51.54l-.81.06c-3,.23-5.73.34-8.19.32H51.7l-.7,0c-1.34-.05-2.59-.13-3.72-.27l-.61-.07a29.05,29.05,0,0,1-3.15-.56,19.7,19.7,0,0,1-1.91-.6,16.54,16.54,0,0,1-1.58-.76c-1.79-1.6-2-2-2.17-2.35a2.85,2.85,0,0,1-.18-.68c0-.31,0-.51,0-.71a7.58,7.58,0,0,1,.29-1.62,9.64,9.64,0,0,1,1-2,21.3,21.3,0,0,1,1.35-1.84l.43-.52c.51-.58,1.05-1.16,1.68-1.77.88-.86,1.67-1.56,2.52-2.27l.6-.51c.72-.58,1.47-1.18,2.27-1.78l.67-.51c1-.75,2.11-1.53,3.26-2.32,1.32-.9,2.48-1.64,3.68-2.4l.9-.57c1.17-.74,2.39-1.47,3.66-2.23,1.93-1.14,3.47-2,5.05-2.9l.74-.41c1.38-.76,2.8-1.52,4.23-2.29l1-.52q5.14-2.73,10.94-5.51l1.13-.55c1.7-.81,3.44-1.63,5.19-2.44l.85-.4c2.09-1,4.21-1.93,6.39-2.9l1.22-.52,5.81-2.53c7.63-3.25,15.49-6.42,23.73-9.57,4.38-1.65,15-5.56,22.88-8.28,1-.35,1.87-.64,2.73-.95,17.1-5.8,33.59-10.76,48.76-14.71,1.26-.35,2.55-.69,3.84-1,.49-.14,1-.26,1.47-.38,2-.5,3.94-1,5.86-1.45l.73-.17c1.66-.39,3.28-.77,4.89-1.12l1.19-.28,4.33-1,1.26-.27c1.4-.3,2.76-.58,4.11-.85.42-.07.84-.16,1.26-.24,1.36-.28,2.69-.53,4-.77.36-.08.72-.14,1.09-.2,1.43-.27,2.84-.51,4.22-.74l.64-.12c3.24-.54,6.34-1,9.27-1.38,1.62-.19,2.89-.34,4.13-.47l1-.1,2.86-.27,1.21-.08,2.44-.17,1.22,0c.76,0,1.49-.06,2.2-.07Z"></path><path class="cls-3" d="M190.8,161.85c-.13.42-.26.83-.36,1.27a1.07,1.07,0,0,0-.07.19c-.42,1.2-.78,2.26-1,2.94-.14.41-.29.85-.45,1.34q-10.56,4-21.8,7.79c-3.22,1.1-6.4,2.15-9.56,3.18l-1.65.54c-2.18.7-4.32,1.38-6.49,2.05a4.29,4.29,0,0,0-.19-.54l-.95-2.7c-.16-.44-.31-.84-.45-1.26q9.15-2.88,18.67-6.1C174.88,167.68,183,164.77,190.8,161.85Z"></path><path class="cls-1" d="M362.46,177.31c22.88.08,36.13,13,36.39,35.33.11,8.52-2.24,15.82-7,21.71-5.23,6.55-13,10-22.56,10a35.78,35.78,0,0,1-11.53-2,34.33,34.33,0,0,1-10.32-5.61,31.58,31.58,0,0,1-6.93-7.69,20.2,20.2,0,0,0-.17,2.83c.11,9.06,1.35,27.13,3.71,53.82,4.25.13,9.28.33,15.23.62l4,.2,7.05.33-.63,6.76-.36,3.86L367.6,316.9l-.34,3.59-.58,6.3-6.56-.56-3.73-.31c-3.85-.33-8.39-.61-13.9-.89s-11.61-.57-18.33-.92c-8.14-.37-14.92-.64-20.19-.8s-9.56-.37-12.43-.56l-3.8-.23-6.62-.42.05-1.26a113.75,113.75,0,0,1-15.5,1.69c-5.63.32-12.48.63-20.93.94-14.36.41-25.44,1.55-33,3.33l-2.38.56-8.3,2-.06-8.27-.68-88.86q-2.73,8-5.58,16.93c-5,15.78-9.29,28.83-12.6,38.79s-5.87,17.37-7.76,22.32l-.44,1.19-1.6,4.15L150,315.5l-1-5.42-.27-1.56c-3-17.31-8.6-38.56-16.55-63.16l-3.74-11.48c0,6.07,0,12.43,0,19,0,13.14,0,24.8,0,34.64s.08,17.56.14,23.55l.1,8.28-8.58,0c-5.49,0-14.09.45-25.52,1.38-5.87.46-11.07.82-15.41,1.05l-12.85.68-7.06.38-.4-34.62,6.09-.47,1.75-.15c3.74-.29,8.39-.67,14.23-1.15,3.54-.31,7.49-.62,11.84-1-1-23-1.76-41.55-2.3-55.07-.24-5.94-.43-11.08-.59-15.32l-.21-6.34-.07-1.81c0-1,0-1.79-.06-2.56,0-1,0-1.89,0-2.54s0-1.35,0-2v-3c0-.84,0-1.71,0-2.32v-2.12c0-7.28.13-14,.36-20.15.07-2,.17-3.86.26-5.54l.11-2.33,3.43-1.56c.93-.42,1.89-.83,2.83-1.24,9.51-4.19,20.07-8.51,31.42-12.81l5.69-2.13,3.1-1.14.94,2.57.66,1.84c2.88,8,6,16.75,9.61,26.75.14.43.29.83.45,1.27l.95,2.7c.68,1.89,1.29,3.61,1.6,4.49.53,1.46.81,2.27,1.09,3.07.47,1.3.93,2.61,1.4,3.93,4.21,11.84,8.63,24.33,13.2,37.32,3.81-10.5,9-24.69,15.66-42.75,1.23-3.41,2.43-6.75,3.57-10l.47-1.35c.52-1.44,2.58-7.43,2.7-7.76.23-.67.31-.94.45-1.35.23-.68.61-1.74,1-2.94.21-.61.35-1.05.5-1.49.52-1.52,1-2.88,1.37-4.08.55-1.58,1-2.91,1.17-3.51,1.22-3.88,2.27-7.13,3.18-10,2.47-7.67,4-12.3,5.46-18.69l.23-1q6.66-1.78,12.89-3.31l50.9,4.85,5.36.52.91.08,6,.57-.61,4.82-.23,1.79L276,145.41l-1.29,12.27-.68,6.6-6.83-.95-16-2.28c-3.3-.46-7.41-1.07-13-1.9l-2.71-.4.08,6.16,1.62,121.61q3.9-.3,8.21-.5c6.65-.32,14.22-.45,22.51-.42l12.33,0,1.31,4.9.88,3.27.14-3,.3-6.56,6.82.54,3.88.3,11,.89c-.32-8.73-.9-19.81-1.74-33.09-.94-15-1.55-27-1.86-36.31-4-.49-8.22-1-12.85-1.72l-3.76-.55-6.57-1,.85-6.33.51-3.62,2.35-17.23.49-3.57.85-6.26,6.52.81,3.73.47c6.64.82,12.9,1.5,18.62,2,5.51.49,10.73.74,15.56.75l10,0,.16,2.64A55.91,55.91,0,0,1,362.46,177.31ZM279.09,314.66l2-.36-5.94-22.24-7.1,0c-8.18,0-15.64.12-22.17.42-5.67.26-10.76.67-15.21,1.17L228.91,164.9l-.18-13.69,3.1.47c2.47.39,4.82.73,7,1.06,5.23.79,9.55,1.43,13.2,1.94l16,2.27,1.3-12.35.91-7.2.55-4.41-4.8-.46L208.55,127c-2.12,9.07-4.23,14.74-8.75,29.15-.58,1.85-3.41,10.2-4.09,12.16l-3.17,9.16c-1.27,3.64-2.64,7.46-4.07,11.38-13.77,37.41-19.55,53.4-22,60.37-6.85-19.51-13.37-38-19.46-55.15-.48-1.34-.95-2.67-1.43-4-.27-.79-.55-1.58-.83-2.35l-.23-.67c-.33-.88-1-2.65-1.42-4L142,179.91c-.16-.44-.43-1.32-.43-1.33-.13-.34-6.67-18.48-9.61-26.65l-.68-1.82-1.85.69-.71.27c-11,4.18-21.32,8.41-30.8,12.57l-1,.46-.15,3c-.1,1.78-.19,3.55-.26,5.42-.24,6.77-.36,14.19-.34,22,0,1.41,0,4.2,0,4.62,0,1.3,0,2,0,2.63,0,1.17,0,2.87.11,5l0,1.81c.18,5.08.43,12.34.8,21.58.59,14.72,1.45,35.27,2.57,61.13-6.9.55-12.93,1.06-18.09,1.49-5.61.46-10.37.87-14.27,1.15l-1.75.15L65.82,316l12.85-.7c4.31-.21,9.43-.57,15.22-1,11.64-.94,20.42-1.41,26.11-1.39h1.91l0-1.85c-.07-6.24-.12-13.87-.15-23.6s0-21.49,0-34.67c0-10.89.06-21.2,0-30.65,0-7-.06-13.74-.12-20.35,0-.15,0-4.68-.06-7.12l0-2.79c.27.83.46,1.41.59,1.72.25.72.51,1.52.76,2.33.59,1.82,1.19,3.7,1.56,4.67l1.37,4.09c.77,2.31,1.55,4.62,2.29,6.93q5.17,15.63,10.45,31.87c8,24.92,13.68,46.47,16.76,64.05l.27,1.56,12.14,0,.44-1.18c1.86-4.87,4.45-12.28,7.69-22.08s7.52-23,12.57-38.73c4.06-12.66,8-24.1,11.58-34,2.31-6.34,4.59-12.2,6.77-17.47l1,125.39,2.37-.56c8-1.9,19.5-3.08,34.29-3.52,8.41-.31,15.22-.61,20.83-.91a113.68,113.68,0,0,0,13.88-1.46m107.52-84.28c3.78-4.74,5.65-10.71,5.57-17.76-.2-18.82-10.46-28.81-29.65-28.87a48.58,48.58,0,0,0-21.79,5,35.26,35.26,0,0,0-9.28,6l-.26-4.34-.22-3.49-3.64,0c-5,0-10.44-.29-16.13-.77s-12.17-1.2-18.89-2l-3.72-.46-.48,3.58-2.37,17.21-.48,3.62,3.75.55c4.58.67,8.74,1.23,12.37,1.66l6.11.72c.21,9.92.86,23.62,2,41.72,1.08,17.26,1.75,30.83,2,40.37l-18.34-1.46-3.88-.3-.18,3.75-.83,17.46-.12,2.71,0,.94,3.78.24c2.82.18,6.94.35,12.24.53s12.08.46,20.26.82c6.77.34,12.91.66,18.36.92s10.22.57,14.16.91l3.73.32.32-3.59,1.83-19.43.36-3.88-4-.19c-9-.44-16-.7-21.15-.8-2.7-30-4.13-50.24-4.24-60.09a26.82,26.82,0,0,1,5.28-16.1,21.69,21.69,0,0,1,5.13-5.37,16.82,16.82,0,0,0-.87,5.52,17.91,17.91,0,0,0,2.5,9,24.71,24.71,0,0,0,5.95,6.85,27.39,27.39,0,0,0,8.25,4.48,28.81,28.81,0,0,0,9.3,1.6c7.51,0,13.35-2.5,17.35-7.5"></path><path class="cls-3" d="M693.1,207.75c8.16,11.91,12.4,27.16,12.61,45.37.21,18.82-4.62,34.23-14.38,45.82-10.77,12.78-25.94,19.22-45.08,19.14-19.41-.07-35-6.33-46.19-18.62-10.93-11.5-16.56-26.76-16.79-45.31-.23-19.57,5.84-36,18.05-48.67s28.54-19.31,48.89-19.23C668.8,186.31,683.23,193.55,693.1,207.75Zm-20.64,73.71c6.13-7.34,9.16-17.39,9-29.92-.14-11.54-3.13-20.88-8.91-27.74-6.39-8.07-14.76-12-25.66-12-12.08,0-21.37,4.14-28.35,12.74-6.48,8.15-9.67,18.39-9.54,30.45.12,10.7,3.35,19.6,9.87,27.2,6.48,7.24,14.88,10.78,25.68,10.83,12.45.05,21.56-3.74,27.89-11.55"></path><path class="cls-3" d="M777.78,178.7l.18,3.67,1,19.94.19,3.73-3.87.06-17.22.31c1.65,3.4,3.59,7.13,5.74,11.16,3.55,6.63,7.55,14,11.84,22,5,8.87,9.28,16.49,12.65,22.71,1.85,3.43,3.52,6.56,5,9.39a131.56,131.56,0,0,0,10.68-25.23l8.9-28.61-14.43-.6-3.67-.16-.05-3.54-.22-19.67,0-3.68h3.79c7.5,0,19.22.32,34.84.87,15.25.54,26.88.83,34.59.85h3.8l0,3.68.25,19.7,0,3.71-3.86-.05-25.69-.32c-7.27,18.4-14,34.38-20,47.57-6.31,13.84-12,25.36-16.83,34.24C794,320.69,780.71,339.42,768,353.25c-15.24,16.54-28.47,24.91-39.33,24.87A23,23,0,0,1,711.46,371a23.84,23.84,0,0,1-6.81-16.79,22.86,22.86,0,0,1,6.61-17.07c4.53-4.46,10.34-6.72,17.33-6.68,6.49,0,11.81,2,15.81,6a16.48,16.48,0,0,1,4.44,7.34c12-11.53,25.27-33.69,28-44-3.81-8.19-9.78-19.93-17.77-34.9-8.36-15.64-18.8-35-31-57.48-1.85.13-3.94.28-6.3.43-3.36.22-7.37.56-12.21,1.05l-3.77.37-.46-3.62-2.54-19.45-.46-3.64,3.75-.42c4.37-.48,12.21-1,23.34-1.54s26.22-1.1,44.56-1.68Z"></path><path class="cls-3" d="M507.94,118.47l3.84.67c14.5,2.49,34.81,3.8,60.38,3.9,3,0,6.2,0,9.38,0l3.88,0,0,3.71.2,18.21.05,3.69-3.82,0-21.41-.07c-.06,1.23-.09,2.51-.12,3.82-.06,2.44-.06,5.23,0,8.48,0,3.53.13,7.56.29,12,.1,4.66.3,10.13.55,16.71.23,6.06.43,11.7.58,16.76s.23,8.9.26,11.87c.34,30.12-2.29,53.37-7.83,69.09-9.8,26.61-28.12,40-54.43,39.92-14.56,0-25.78-4-33.35-11.8s-11.38-19.2-11.55-34.12a109.18,109.18,0,0,1,9.23-44.45l1.42-3.32,3.48,1.35L487.43,242l3.62,1.4-1.47,3.44c-5.4,12.75-8.1,24.52-8,35,.15,13.27,5.66,19.22,17.85,19.27s20.87-6.42,26.9-19.75c6.39-14.12,9.47-35.83,9.14-64.54,0-3.22-.22-7.39-.54-12.38l-.16-2.77q-.4-6.67-.93-15.18c-.42-6.64-.73-12.7-1-18-.23-5.1-.36-9.36-.39-12.67l-.08-5.42,0-2.1L508,145.84l-4-.41.56-3.81,2.83-19.43Z"></path><path class="cls-2" d="M387.86,313.56c-5.54-5.77-8.39-13.18-8.5-22a29,29,0,0,1,8.08-21.14,12.3,12.3,0,0,1,.95-1v0l-7.05,6.65c-.3.31-.64.61-.94.95-5.45,5.67-8.16,12.79-8.06,21.16.1,8.82,3,16.22,8.48,22,5.71,5.93,13.48,9.09,22.51,9.12a28,28,0,0,0,19.82-7.7c2.36-2.22,4.69-4.43,7-6.65a27.88,27.88,0,0,1-19.82,7.69C401.33,322.65,393.55,319.51,387.86,313.56Z"></path><path class="cls-1" d="M429.61,272.58a29.81,29.81,0,0,1,8.53,21.19,30.74,30.74,0,0,1-7.85,21,28.08,28.08,0,0,1-21.93,9.88c-9,0-16.81-3.18-22.5-9.14-5.52-5.75-8.39-13.16-8.49-22-.08-8.37,2.62-15.49,8.07-21.16s13.17-8.81,21.95-8.78S423.91,266.75,429.61,272.58Zm-4.46,38.05a24.7,24.7,0,0,0,6.32-16.88,23.61,23.61,0,0,0-6.7-16.81c-4.45-4.54-10.26-6.86-17.28-6.89s-12.79,2.26-17.13,6.77a22.93,22.93,0,0,0-6.31,16.77c.09,7.15,2.33,13.08,6.67,17.62s10.37,7,17.58,7a21.35,21.35,0,0,0,16.85-7.62"></path><path class="cls-3" d="M407.49,270.05c7,0,12.83,2.35,17.28,6.89a23.61,23.61,0,0,1,6.7,16.81,24.7,24.7,0,0,1-6.32,16.88,21.32,21.32,0,0,1-16.85,7.62c-7.21,0-13.11-2.39-17.58-7s-6.58-10.47-6.67-17.62a22.93,22.93,0,0,1,6.31-16.77C394.7,272.31,400.47,270,407.49,270.05Z"></path><path class="cls-3" d="M208.55,127l57.51,5.49,4.8.46-.55,4.41-.91,7.21L268.1,157l-16-2.27c-3.65-.51-8-1.15-12.91-1.89-2.5-.38-4.85-.72-7.31-1.11l-3.11-.47.18,13.69,1.71,128.72c4.45-.5,9.54-.91,15.21-1.17,6.53-.3,14-.44,22.17-.42l7.1,0L281,314.3l-2,.36a113.68,113.68,0,0,1-13.88,1.46c-5.61.3-12.42.6-20.83.91-14.79.44-26.31,1.62-34.29,3.52l-2.37.56-1-125.39c-2.18,5.27-4.46,11.13-6.77,17.47-3.62,9.86-7.52,21.3-11.58,34-5,15.76-9.27,28.79-12.57,38.73S170,303.09,168.15,308l-.45,1.18-12.13,0-.27-1.56c-3.08-17.58-8.72-39.13-16.76-64.05q-5.28-16.23-10.45-31.87c-.74-2.31-1.52-4.62-2.29-6.93l-1.37-4.09c-.37-1-1-2.85-1.56-4.67-.25-.81-.51-1.61-.76-2.33-.11-.31-.32-.89-.59-1.72l0,2.56c0,2.67.06,7.2.06,7.35.06,6.61.1,13.35.12,20.35,0,9.45,0,19.76,0,30.65,0,13.18,0,24.84,0,34.67s.08,17.36.14,23.33l0,2.12H120c-5.69,0-14.47.45-26.11,1.39-5.79.47-10.91.83-15.22,1l-12.85.7-.26-21.89,1.75-.15c3.9-.28,8.66-.69,14.27-1.15,5.16-.43,11.19-.94,18.09-1.49-1.12-25.86-2-46.41-2.57-61.13-.37-9.24-.62-16.5-.79-21.58l-.06-1.81c-.06-2.13-.09-3.83-.11-5,0-.67,0-1.33,0-2,0-1.07,0-3.86,0-5.27,0-7.85.1-15.27.34-22,.07-1.87.16-3.64.26-5.42l.15-3,1-.46c9.48-4.16,19.83-8.39,30.8-12.57l.71-.27,1.85-.69.68,1.82c2.94,8.17,9.48,26.31,9.61,26.65,0,0,.27.89.43,1.33l.95,2.71c.66,1.83,1.28,3.6,1.61,4.48l.23.67c.28.77.56,1.56.83,2.35.48,1.32.95,2.65,1.43,4,6.09,17.12,12.61,35.64,19.46,55.15,2.45-7,8.23-23,22-60.37,1.43-3.92,2.8-7.74,4.07-11.38l3.17-9.16c.68-2,3.51-10.31,4.09-12.16C204.32,141.78,206.43,136.11,208.55,127Z"></path><path class="cls-3" d="M362.53,183.75c19.19.06,29.45,10.05,29.65,28.87.08,7-1.79,13-5.57,17.76-4,5-9.84,7.52-17.35,7.5a28.81,28.81,0,0,1-9.3-1.6,27.39,27.39,0,0,1-8.25-4.48,24.71,24.71,0,0,1-5.95-6.85,17.91,17.91,0,0,1-2.5-9,16.82,16.82,0,0,1,.87-5.52,21.69,21.69,0,0,0-5.13,5.37,26.82,26.82,0,0,0-5.28,16.1c.11,9.85,1.54,30.07,4.24,60.09,5.15.1,12.13.36,21.15.8l4,.19-.36,3.88-1.83,19.43-.32,3.59-3.73-.32c-3.94-.34-8.57-.64-14.16-.91s-11.59-.58-18.36-.92c-8.18-.36-15-.64-20.26-.82s-9.42-.35-12.24-.53l-3.49-.22-.26-1,.12-2.71.83-17.46.18-3.75,3.88.3L311.47,293c-.22-9.54-.89-23.11-2-40.37-1.14-18.1-1.79-31.8-2-41.72l-6.11-.72c-3.63-.43-7.79-1-12.37-1.66l-3.75-.55.48-3.62,2.37-17.21.48-3.58,3.72.46c6.72.83,13.08,1.52,18.89,2s11.12.75,16.13.77l3.64,0,.22,3.49.26,4.34a35.26,35.26,0,0,1,9.28-6A48.58,48.58,0,0,1,362.53,183.75Z"></path><path class="cls-1" d="M288.24,111.4c.92,2.44,1.42,6.33-1.47,11.13a34.13,34.13,0,0,1-7.15,8c-.6.52-1.24,1-1.9,1.57l.61-4.82-6-.57c5.6-4.41,8.76-8.23,8.93-11.21a4.18,4.18,0,0,0-.24-1.62,3.7,3.7,0,0,0-.66-1.09,6.78,6.78,0,0,0-1.07-1,10.69,10.69,0,0,0-1.5-.84,15.39,15.39,0,0,0-2.18-.75,23,23,0,0,0-2.42-.51c-1-.14-1.72-.22-2.44-.29-.27,0-.58,0-.86-.07-.61,0-1.24-.08-1.9-.1l-1,0-1.46,0-1.7,0c-.71,0-1.44,0-2.2.07l-1.22,0-2.44.17-1.21.08-2.86.27-1,.1c-1.24.13-2.51.28-3.81.44-3.25.42-6.35.87-9.59,1.41-2,.35-3.43.58-4.86.86-.37.06-.73.12-1.09.2-1.32.24-2.65.49-4,.77-.42.08-.84.17-1.26.24-1.35.27-2.71.55-4.11.85l-1.26.27-4.33,1-1.19.28c-1.61.35-3.23.73-4.89,1.12-2.65.64-4.62,1.12-6.59,1.62-.51.11-1,.24-1.49.37-16.21,4.11-34,9.4-52.59,15.72-.87.29-1.72.6-2.58.89,9.63-41.18,41-55.19,42.06-55.66-.63-5-1.06-10.32-1.24-15.41a181.53,181.53,0,0,1,.41-20.1c.69-9.16,1.91-15.69,2.63-17.24a4.71,4.71,0,0,0,.4-2.85C190.66,26.29,130,62.87,109,123.48a127,127,0,0,0-6.61,30.37l-5.76,2.5-1.08.47c-2.3,1-4.42,2-6.51,3l-.85.4c-1.75.81-3.49,1.63-5.19,2.44l-1.13.55q-5.79,2.79-10.94,5.51l-1,.52c-1.43.77-2.85,1.53-4.23,2.29l-.74.41c-1.58.89-3.12,1.76-4.57,2.62-1.75,1-3,1.77-4.14,2.51l-.9.57c-1.2.76-2.36,1.5-3.45,2.24-1.38.95-2.46,1.73-3.49,2.48l-.67.51c-.8.6-1.55,1.2-2.27,1.78l-.6.51c-.85.71-1.64,1.41-2.34,2.09s-1.35,1.37-1.86,1.95a21.66,21.66,0,0,0-1.55,2,10.6,10.6,0,0,0-1.08,2,7.79,7.79,0,0,0-.36,1.58c.33,2.21.57,2.57.86,2.91a11.8,11.8,0,0,0,2.54,1.78,14.24,14.24,0,0,0,2.17.74,23.17,23.17,0,0,0,3.43.65c1.76.21,3,.3,4.33.35,1.12,0,1.55,0,2,0,2.51,0,5.32-.1,8.37-.33a7.36,7.36,0,0,0,.8-.06c1.75-.13,3.59-.32,5.5-.54l1-.12c2-.24,4-.51,6.17-.82,2.47-.37,4.66-.73,6.9-1.13l.89-.15c2.19-.38,4.46-.82,6.78-1.27v2.39c0,1.25,0,1.91,0,2.6s0,1.51,0,2.54c-14.92,2.88-27,4.31-36.16,4.28a49.73,49.73,0,0,1-11.71-1.2c-7.1-1.78-9.89-5.56-11-8.39a11.54,11.54,0,0,1,.08-8.23,20.11,20.11,0,0,1,3.72-6.09c2.81-3.33,7-6.84,12.76-10.78,9-6.11,21.57-13,36.79-20.05-.45-.59-.94-1.19-1.44-1.82-2.21-2.84-4.53-5.67-6.88-8.47-2.58-3.07-5.22-6.12-7.91-9.1-1.14-1.25-2.3-2.46-3.44-3.69-3.51-3.78-7.06-7.46-10.57-10.9a253,253,0,0,0-21.35-18.62A174.35,174.35,0,0,0,13,88.19a11.86,11.86,0,0,1-5.65-7.73c-1.06-4.84.8-10.19,5.55-15.92.41-.52,1.14-1.48,2-2.59,6.38-8.46,21.28-28.29,46.66-43.37A131.34,131.34,0,0,1,107.83,1.74,138.64,138.64,0,0,1,130.47,0a165.33,165.33,0,0,1,39.78,5.2,206,206,0,0,1,20.08,6.16,23,23,0,0,1,6.51,4.54c4.29,4.38,5.49,9.66,3.29,14.54-.4,1.24-1.43,6.49-2.08,15a183.26,183.26,0,0,0-.38,19.32A135.11,135.11,0,0,0,200,85.76a76.2,76.2,0,0,0,7.23,21.61c.61,1.1,1.22,2.16,1.86,3.15,16.44-4,39.89-8.75,56.58-8.69A49.53,49.53,0,0,1,277.26,103C284.38,104.79,287.16,108.57,288.24,111.4ZM68.86,123.33C75.16,67,119.07,26.47,143.45,8c-4.57-.43-8.91-.62-13-.65h-1.27c-.84,0-1.59,0-2.35,0l-2.28.07c-.22,0-.43,0-.64,0q-.7,0-1.38.06l-1.41.08-1,.06c-17.47,1.21-28.83,5.42-32.44,6.79l-1,.38C53.76,32.43,38.26,82,35.29,92.52c-.17.56-.29,1-.38,1.34.09.12.85.68,2.05,1.59A253.55,253.55,0,0,1,59.1,114.76c3,2.89,5.75,5.77,8.44,8.58l1.11,1.16q.13-.6.21-1.17"></path><path class="cls-1" d="M262.8,113.4c5.64,0,9.19.92,10.25,2.74a2.72,2.72,0,0,1,.34,1.28,5.88,5.88,0,0,1-1.47,3.3,31.19,31.19,0,0,1-5.85,5.35l-50.9-4.85L216,121l2.06-.49,1.88-.44c.2-.06.42-.11.62-.15l.49-.11c14.45-3.36,26.72-5.48,35.74-6.17Q260.09,113.4,262.8,113.4Z"></path><path class="cls-1" d="M202.28,124.53l-.23,1c-1.49,6.39-3,11-5.46,18.7-.91,2.86-2,6.11-3.18,10-.19.58-.62,1.92-1.17,3.53-.39,1.18-.85,2.54-1.3,3.85-7.87,3.13-16,6-24.43,8.91q-9.52,3.24-18.69,6.12c-3.58-10-6.73-18.77-9.61-26.75l-.66-1.84-.94-2.57q8.74-3.19,18-6.34C171.42,133.4,187.59,128.5,202.28,124.53Z"></path><path class="cls-1" d="M90.14,164.36,90,166.69c-.09,1.68-.19,3.58-.26,5.54-.23,6.16-.33,12.87-.36,19.93-13.13,2.69-23.85,4.12-31.13,4.09-6,0-9.63-1-10.43-3.09-.46-1.24.12-2.8,1.61-4.61C54.37,182.64,69.15,174,90.14,164.36Z"></path><path class="cls-1" d="M188.91,167.6c-.12.33-2.18,6.32-2.67,7.69-.19.52-.34,1-.5,1.42-5.23,1.91-10.57,3.81-16,5.65q-9,3.06-17.83,5.81c-.28-.8-.56-1.61-.85-2.41l-.24-.66c-.31-.88-.92-2.6-1.4-3.93l6.48-2.06,1.65-.53c3.16-1,6.34-2.08,9.56-3.18Q178.36,171.58,188.91,167.6Z"></path><path class="cls-3" d="M193.39,24.66a4.69,4.69,0,0,1-.39,2.85c-.72,1.55-1.94,8.08-2.63,17.24A183.71,183.71,0,0,0,190,64.84c.18,5,.61,10.21,1.32,15.42-.27.11-32.36,14-42.05,55.27a1.47,1.47,0,0,1-.06.4c-8,2.77-18.59,6.68-23,8.33-8.24,3.15-16.1,6.32-23.5,9.48A113.83,113.83,0,0,1,109,123.48C130,62.87,190.66,26.29,193.39,24.66Z"></path><path class="cls-3" d="M139.31,7.69c1.48.1,2.78.19,4.11.33C119,26.47,75.11,67,68.81,123.35c0,.38-.1.73-.14,1.12,0,0,0,0-1.13-1.13-2.69-2.81-5.47-5.69-8.44-8.58a251.21,251.21,0,0,0-22-19.2c-1.33-1-2.09-1.58-2.18-1.65.09-.38.21-.83.38-1.39C38.26,82,53.76,32.43,86.5,15l1.19-.47c3.61-1.37,15-5.58,32.44-6.79l1-.06,1.2-.07c.66,0,1.12-.06,1.59-.07.21,0,.42,0,.64,0l2-.06c1,0,1.8,0,2.56,0h1.18C133.16,7.39,136.17,7.48,139.31,7.69Z"></path><path class="cls-2" d="M46.75,126.57c3.51,3.43,7.06,7.11,10.57,10.88,1.14,1.24,2.3,2.45,3.43,3.7,2.7,3,5.33,6,7.92,9.1,2.34,2.81,4.66,5.63,6.88,8.46.5.64,1,1.25,1.43,1.83l7-6.65c-.45-.59-.94-1.19-1.44-1.82-2.21-2.84-4.53-5.67-6.88-8.47-2.58-3.07-5.22-6.12-7.91-9.1-1.14-1.25-2.3-2.46-3.44-3.69-3.51-3.78-7.06-7.46-10.57-10.9a253,253,0,0,0-21.35-18.62A174.35,174.35,0,0,0,13,88.19a11.86,11.86,0,0,1-5.65-7.73c-1.06-4.84.8-10.19,5.55-15.92.41-.52,1.14-1.48,2-2.59A180.52,180.52,0,0,1,35.7,38.15h0l-7,6.65A181,181,0,0,0,7.8,68.6c-.83,1.11-1.55,2.07-2,2.59C1.09,76.92-.77,82.27.29,87.11a11.9,11.9,0,0,0,5.64,7.74A170,170,0,0,1,25.4,108,246,246,0,0,1,46.75,126.57Z"></path><path class="cls-2" d="M169.74,182.36q-9,3.06-17.83,5.81l1.4,3.93c2.74-.86,6.59-2.14,9.4-3.1q8.13-2.76,16-5.64l7-6.65C180.51,178.62,175.17,180.52,169.74,182.36Z"></path><path class="cls-2" d="M41.64,207.43c-7.1-1.78-9.89-5.56-11-8.39a11.54,11.54,0,0,1,.08-8.23,20.11,20.11,0,0,1,3.72-6.09,33.32,33.32,0,0,1,2.34-2.5c.21-.19.38-.39.6-.59l-.75.71c-2.09,2-4.19,3.95-6.28,5.94a37.77,37.77,0,0,0-2.95,3.08,20.56,20.56,0,0,0-3.72,6.09,11.46,11.46,0,0,0-.06,8.23c1.07,2.85,3.86,6.62,11,8.39a50.7,50.7,0,0,0,11.71,1.22c9.16,0,21.24-1.41,36.16-4.29l7-6.65c-14.92,2.88-27,4.31-36.16,4.28A49.73,49.73,0,0,1,41.64,207.43Z"></path><path class="cls-1" d="M858.29,235.7H860a2.34,2.34,0,0,0,.38.09,12.35,12.35,0,0,1,10.55,8.08,24.41,24.41,0,0,1,.86,3.64v1.68c0,.16-.07.33-.09.49a12.33,12.33,0,0,1-8.23,10.51A26.53,26.53,0,0,1,860,261h-1.69l-.38-.09a12.32,12.32,0,0,1-10.55-8.1,27.73,27.73,0,0,1-.88-3.62v-1.68c0-.17.08-.33.11-.49a12.29,12.29,0,0,1,8.22-10.5A25.51,25.51,0,0,1,858.29,235.7Zm.8,22.73a10.08,10.08,0,1,0-10-10.16A10.07,10.07,0,0,0,859.09,258.43Z"></path><path class="cls-4" d="M865.5,254.67c-1.17,0-2.25,0-3.34,0a.64.64,0,0,1-.42-.33c-.49-1-1-1.95-1.44-2.92-.77-1.55-1.47-1.91-3.31-1.69v4.93h-3.36V241.51a.7.7,0,0,1,.17-.06c2.12,0,4.22,0,6.33.09a6.33,6.33,0,0,1,1,.15,3.1,3.1,0,0,1,2.67,2.79,3.39,3.39,0,0,1-2.42,4c1.57.62,2.07,2,2.72,3.33C864.57,252.72,865,253.65,865.5,254.67Zm-8.5-7.33h1.34a6.07,6.07,0,0,0,.84-.07,1.4,1.4,0,0,0,1.26-1.47c0-1.07-.26-1.62-1.14-1.76a21.11,21.11,0,0,0-2.3-.16Z"></path></svg> 